<svg xmlns="http://www.w3.org/2000/svg" version="1.1" xmlns:xlink="http://www.w3.org/1999/xlink" xmlns:svgjs="http://svgjs.com/svgjs" width="1920" height="1080" preserveAspectRatio="none" viewBox="0 0 1920 1080"><g mask="url(&quot;#SvgjsMask1016&quot;)" fill="none"><rect width="1920" height="1080" x="0" y="0" fill="rgba(0, 0, 0, 1)"></rect><path d="M32.89 -69.49L97.84 -31.99L97.84 43.01L32.89 80.51L-32.06 43.01L-32.06 -31.99zM97.84 43.01L162.8 80.51L162.8 155.51L97.84 193.01L32.89 155.51L32.89 80.51zM97.84 493.01L162.8 530.51L162.8 605.51L97.84 643.01L32.89 605.51L32.89 530.51zM32.89 605.51L97.84 643.01L97.84 718.01L32.89 755.51L-32.06 718.01L-32.06 643.01zM97.84 718.01L162.8 755.51L162.8 830.51L97.84 868.01L32.89 830.51L32.89 755.51zM32.89 830.51L97.84 868.01L97.84 943.01L32.89 980.51L-32.06 943.01L-32.06 868.01zM32.89 1055.51L97.84 1093.01L97.84 1168.01L32.89 1205.51L-32.06 1168.01L-32.06 1093.01zM227.75 43.01L292.7 80.51L292.7 155.51L227.75 193.01L162.8 155.51L162.8 80.51zM162.8 830.51L227.75 868.01L227.75 943.01L162.8 980.51L97.84 943.01L97.84 868.01zM292.7 -69.49L357.66 -31.99L357.66 43.01L292.7 80.51L227.75 43.01L227.75 -31.99zM292.7 605.51L357.66 643.01L357.66 718.01L292.7 755.51L227.75 718.01L227.75 643.01zM357.66 718.01L422.61 755.51L422.61 830.51L357.66 868.01L292.7 830.51L292.7 755.51zM292.7 830.51L357.66 868.01L357.66 943.01L292.7 980.51L227.75 943.01L227.75 868.01zM292.7 1055.51L357.66 1093.01L357.66 1168.01L292.7 1205.51L227.75 1168.01L227.75 1093.01zM487.57 493.01L552.52 530.51L552.52 605.51L487.57 643.01L422.61 605.51L422.61 530.51zM422.61 605.51L487.57 643.01L487.57 718.01L422.61 755.51L357.66 718.01L357.66 643.01zM422.61 830.51L487.57 868.01L487.57 943.01L422.61 980.51L357.66 943.01L357.66 868.01zM487.57 943.01L552.52 980.51L552.52 1055.51L487.57 1093.01L422.61 1055.51L422.61 980.51zM422.61 1055.51L487.57 1093.01L487.57 1168.01L422.61 1205.51L357.66 1168.01L357.66 1093.01zM617.47 43.01L682.43 80.51L682.43 155.51L617.47 193.01L552.52 155.51L552.52 80.51zM617.47 268.01L682.43 305.51L682.43 380.51L617.47 418.01L552.52 380.51L552.52 305.51zM617.47 718.01L682.43 755.51L682.43 830.51L617.47 868.01L552.52 830.51L552.52 755.51zM682.43 155.51L747.38 193.01L747.38 268.01L682.43 305.51L617.47 268.01L617.47 193.01zM747.38 268.01L812.34 305.51L812.34 380.51L747.38 418.01L682.43 380.51L682.43 305.51zM682.43 380.51L747.38 418.01L747.38 493.01L682.43 530.51L617.47 493.01L617.47 418.01zM747.38 493.01L812.34 530.51L812.34 605.51L747.38 643.01L682.43 605.51L682.43 530.51zM682.43 605.51L747.38 643.01L747.38 718.01L682.43 755.51L617.47 718.01L617.47 643.01zM682.43 830.51L747.38 868.01L747.38 943.01L682.43 980.51L617.47 943.01L617.47 868.01zM812.33 -69.49L877.29 -31.99L877.29 43.01L812.33 80.51L747.38 43.01L747.38 -31.99zM877.29 493.01L942.24 530.51L942.24 605.51L877.29 643.01L812.33 605.51L812.33 530.51zM812.33 830.51L877.29 868.01L877.29 943.01L812.33 980.51L747.38 943.01L747.38 868.01zM942.24 -69.49L1007.2 -31.99L1007.2 43.01L942.24 80.51L877.29 43.01L877.29 -31.99zM1007.2 43.01L1072.15 80.51L1072.15 155.51L1007.2 193.01L942.24 155.51L942.24 80.51zM942.24 155.51L1007.2 193.01L1007.2 268.01L942.24 305.51L877.29 268.01L877.29 193.01zM1007.2 268.01L1072.15 305.51L1072.15 380.51L1007.2 418.01L942.24 380.51L942.24 305.51zM1007.2 943.01L1072.15 980.51L1072.15 1055.51L1007.2 1093.01L942.24 1055.51L942.24 980.51zM1072.15 -69.49L1137.1 -31.99L1137.1 43.01L1072.15 80.51L1007.2 43.01L1007.2 -31.99zM1072.15 155.51L1137.1 193.01L1137.1 268.01L1072.15 305.51L1007.2 268.01L1007.2 193.01zM1137.1 718.01L1202.06 755.51L1202.06 830.51L1137.1 868.01L1072.15 830.51L1072.15 755.51zM1267.01 43.01L1331.96 80.51L1331.96 155.51L1267.01 193.01L1202.06 155.51L1202.06 80.51zM1267.01 493.01L1331.96 530.51L1331.96 605.51L1267.01 643.01L1202.06 605.51L1202.06 530.51zM1267.01 718.01L1331.96 755.51L1331.96 830.51L1267.01 868.01L1202.06 830.51L1202.06 755.51zM1202.06 830.51L1267.01 868.01L1267.01 943.01L1202.06 980.51L1137.1 943.01L1137.1 868.01zM1267.01 943.01L1331.96 980.51L1331.96 1055.51L1267.01 1093.01L1202.06 1055.51L1202.06 980.51zM1202.06 1055.51L1267.01 1093.01L1267.01 1168.01L1202.06 1205.51L1137.1 1168.01L1137.1 1093.01zM1331.97 -69.49L1396.92 -31.99L1396.92 43.01L1331.97 80.51L1267.01 43.01L1267.01 -31.99zM1396.92 43.01L1461.87 80.51L1461.87 155.51L1396.92 193.01L1331.97 155.51L1331.97 80.51zM1396.92 268.01L1461.87 305.51L1461.87 380.51L1396.92 418.01L1331.97 380.51L1331.97 305.51zM1331.97 605.51L1396.92 643.01L1396.92 718.01L1331.97 755.51L1267.01 718.01L1267.01 643.01zM1331.97 830.51L1396.92 868.01L1396.92 943.01L1331.97 980.51L1267.01 943.01L1267.01 868.01zM1396.92 943.01L1461.87 980.51L1461.87 1055.51L1396.92 1093.01L1331.97 1055.51L1331.97 980.51zM1331.97 1055.51L1396.92 1093.01L1396.92 1168.01L1331.97 1205.51L1267.01 1168.01L1267.01 1093.01zM1461.87 -69.49L1526.83 -31.99L1526.83 43.01L1461.87 80.51L1396.92 43.01L1396.92 -31.99zM1526.83 43.01L1591.78 80.51L1591.78 155.51L1526.83 193.01L1461.87 155.51L1461.87 80.51zM1461.87 380.51L1526.83 418.01L1526.83 493.01L1461.87 530.51L1396.92 493.01L1396.92 418.01zM1526.83 493.01L1591.78 530.51L1591.78 605.51L1526.83 643.01L1461.87 605.51L1461.87 530.51zM1461.87 1055.51L1526.83 1093.01L1526.83 1168.01L1461.87 1205.51L1396.92 1168.01L1396.92 1093.01zM1591.78 155.51L1656.73 193.01L1656.73 268.01L1591.78 305.51L1526.83 268.01L1526.83 193.01zM1591.78 605.51L1656.73 643.01L1656.73 718.01L1591.78 755.51L1526.83 718.01L1526.83 643.01zM1656.73 943.01L1721.69 980.51L1721.69 1055.51L1656.73 1093.01L1591.78 1055.51L1591.78 980.51zM1786.64 43.01L1851.59 80.51L1851.59 155.51L1786.64 193.01L1721.69 155.51L1721.69 80.51zM1721.69 605.51L1786.64 643.01L1786.64 718.01L1721.69 755.51L1656.73 718.01L1656.73 643.01zM1786.64 718.01L1851.59 755.51L1851.59 830.51L1786.64 868.01L1721.69 830.51L1721.69 755.51zM1721.69 1055.51L1786.64 1093.01L1786.64 1168.01L1721.69 1205.51L1656.73 1168.01L1656.73 1093.01zM1851.6 -69.49L1916.55 -31.99L1916.55 43.01L1851.6 80.51L1786.64 43.01L1786.64 -31.99zM1916.55 43.01L1981.5 80.51L1981.5 155.51L1916.55 193.01L1851.6 155.51L1851.6 80.51zM1916.55 268.01L1981.5 305.51L1981.5 380.51L1916.55 418.01L1851.6 380.51L1851.6 305.51zM1851.6 380.51L1916.55 418.01L1916.55 493.01L1851.6 530.51L1786.64 493.01L1786.64 418.01zM1916.55 493.01L1981.5 530.51L1981.5 605.51L1916.55 643.01L1851.6 605.51L1851.6 530.51zM1851.6 1055.51L1916.55 1093.01L1916.55 1168.01L1851.6 1205.51L1786.64 1168.01L1786.64 1093.01z" stroke="rgba(0, 0, 0, 1)" stroke-width="2"></path><path d="M25.39 -69.49 a7.5 7.5 0 1 0 15 0 a7.5 7.5 0 1 0 -15 0zM90.34 -31.99 a7.5 7.5 0 1 0 15 0 a7.5 7.5 0 1 0 -15 0zM90.34 43.01 a7.5 7.5 0 1 0 15 0 a7.5 7.5 0 1 0 -15 0zM25.39 80.51 a7.5 7.5 0 1 0 15 0 a7.5 7.5 0 1 0 -15 0zM-39.56 43.01 a7.5 7.5 0 1 0 15 0 a7.5 7.5 0 1 0 -15 0zM-39.56 -31.99 a7.5 7.5 0 1 0 15 0 a7.5 7.5 0 1 0 -15 0zM155.3 80.51 a7.5 7.5 0 1 0 15 0 a7.5 7.5 0 1 0 -15 0zM155.3 155.51 a7.5 7.5 0 1 0 15 0 a7.5 7.5 0 1 0 -15 0zM90.34 193.01 a7.5 7.5 0 1 0 15 0 a7.5 7.5 0 1 0 -15 0zM25.39 155.51 a7.5 7.5 0 1 0 15 0 a7.5 7.5 0 1 0 -15 0zM90.34 493.01 a7.5 7.5 0 1 0 15 0 a7.5 7.5 0 1 0 -15 0zM155.3 530.51 a7.5 7.5 0 1 0 15 0 a7.5 7.5 0 1 0 -15 0zM155.3 605.51 a7.5 7.5 0 1 0 15 0 a7.5 7.5 0 1 0 -15 0zM90.34 643.01 a7.5 7.5 0 1 0 15 0 a7.5 7.5 0 1 0 -15 0zM25.39 605.51 a7.5 7.5 0 1 0 15 0 a7.5 7.5 0 1 0 -15 0zM25.39 530.51 a7.5 7.5 0 1 0 15 0 a7.5 7.5 0 1 0 -15 0zM90.34 718.01 a7.5 7.5 0 1 0 15 0 a7.5 7.5 0 1 0 -15 0zM25.39 755.51 a7.5 7.5 0 1 0 15 0 a7.5 7.5 0 1 0 -15 0zM-39.56 718.01 a7.5 7.5 0 1 0 15 0 a7.5 7.5 0 1 0 -15 0zM-39.56 643.01 a7.5 7.5 0 1 0 15 0 a7.5 7.5 0 1 0 -15 0zM155.3 755.51 a7.5 7.5 0 1 0 15 0 a7.5 7.5 0 1 0 -15 0zM155.3 830.51 a7.5 7.5 0 1 0 15 0 a7.5 7.5 0 1 0 -15 0zM90.34 868.01 a7.5 7.5 0 1 0 15 0 a7.5 7.5 0 1 0 -15 0zM25.39 830.51 a7.5 7.5 0 1 0 15 0 a7.5 7.5 0 1 0 -15 0zM90.34 943.01 a7.5 7.5 0 1 0 15 0 a7.5 7.5 0 1 0 -15 0zM25.39 980.51 a7.5 7.5 0 1 0 15 0 a7.5 7.5 0 1 0 -15 0zM-39.56 943.01 a7.5 7.5 0 1 0 15 0 a7.5 7.5 0 1 0 -15 0zM-39.56 868.01 a7.5 7.5 0 1 0 15 0 a7.5 7.5 0 1 0 -15 0zM25.39 1055.51 a7.5 7.5 0 1 0 15 0 a7.5 7.5 0 1 0 -15 0zM90.34 1093.01 a7.5 7.5 0 1 0 15 0 a7.5 7.5 0 1 0 -15 0zM90.34 1168.01 a7.5 7.5 0 1 0 15 0 a7.5 7.5 0 1 0 -15 0zM25.39 1205.51 a7.5 7.5 0 1 0 15 0 a7.5 7.5 0 1 0 -15 0zM-39.56 1168.01 a7.5 7.5 0 1 0 15 0 a7.5 7.5 0 1 0 -15 0zM-39.56 1093.01 a7.5 7.5 0 1 0 15 0 a7.5 7.5 0 1 0 -15 0zM220.25 43.01 a7.5 7.5 0 1 0 15 0 a7.5 7.5 0 1 0 -15 0zM285.2 80.51 a7.5 7.5 0 1 0 15 0 a7.5 7.5 0 1 0 -15 0zM285.2 155.51 a7.5 7.5 0 1 0 15 0 a7.5 7.5 0 1 0 -15 0zM220.25 193.01 a7.5 7.5 0 1 0 15 0 a7.5 7.5 0 1 0 -15 0zM220.25 868.01 a7.5 7.5 0 1 0 15 0 a7.5 7.5 0 1 0 -15 0zM220.25 943.01 a7.5 7.5 0 1 0 15 0 a7.5 7.5 0 1 0 -15 0zM155.3 980.51 a7.5 7.5 0 1 0 15 0 a7.5 7.5 0 1 0 -15 0zM285.2 -69.49 a7.5 7.5 0 1 0 15 0 a7.5 7.5 0 1 0 -15 0zM350.16 -31.99 a7.5 7.5 0 1 0 15 0 a7.5 7.5 0 1 0 -15 0zM350.16 43.01 a7.5 7.5 0 1 0 15 0 a7.5 7.5 0 1 0 -15 0zM220.25 -31.99 a7.5 7.5 0 1 0 15 0 a7.5 7.5 0 1 0 -15 0zM285.2 605.51 a7.5 7.5 0 1 0 15 0 a7.5 7.5 0 1 0 -15 0zM350.16 643.01 a7.5 7.5 0 1 0 15 0 a7.5 7.5 0 1 0 -15 0zM350.16 718.01 a7.5 7.5 0 1 0 15 0 a7.5 7.5 0 1 0 -15 0zM285.2 755.51 a7.5 7.5 0 1 0 15 0 a7.5 7.5 0 1 0 -15 0zM220.25 718.01 a7.5 7.5 0 1 0 15 0 a7.5 7.5 0 1 0 -15 0zM220.25 643.01 a7.5 7.5 0 1 0 15 0 a7.5 7.5 0 1 0 -15 0zM415.11 755.51 a7.5 7.5 0 1 0 15 0 a7.5 7.5 0 1 0 -15 0zM415.11 830.51 a7.5 7.5 0 1 0 15 0 a7.5 7.5 0 1 0 -15 0zM350.16 868.01 a7.5 7.5 0 1 0 15 0 a7.5 7.5 0 1 0 -15 0zM285.2 830.51 a7.5 7.5 0 1 0 15 0 a7.5 7.5 0 1 0 -15 0zM350.16 943.01 a7.5 7.5 0 1 0 15 0 a7.5 7.5 0 1 0 -15 0zM285.2 980.51 a7.5 7.5 0 1 0 15 0 a7.5 7.5 0 1 0 -15 0zM285.2 1055.51 a7.5 7.5 0 1 0 15 0 a7.5 7.5 0 1 0 -15 0zM350.16 1093.01 a7.5 7.5 0 1 0 15 0 a7.5 7.5 0 1 0 -15 0zM350.16 1168.01 a7.5 7.5 0 1 0 15 0 a7.5 7.5 0 1 0 -15 0zM285.2 1205.51 a7.5 7.5 0 1 0 15 0 a7.5 7.5 0 1 0 -15 0zM220.25 1168.01 a7.5 7.5 0 1 0 15 0 a7.5 7.5 0 1 0 -15 0zM220.25 1093.01 a7.5 7.5 0 1 0 15 0 a7.5 7.5 0 1 0 -15 0zM480.07 493.01 a7.5 7.5 0 1 0 15 0 a7.5 7.5 0 1 0 -15 0zM545.02 530.51 a7.5 7.5 0 1 0 15 0 a7.5 7.5 0 1 0 -15 0zM545.02 605.51 a7.5 7.5 0 1 0 15 0 a7.5 7.5 0 1 0 -15 0zM480.07 643.01 a7.5 7.5 0 1 0 15 0 a7.5 7.5 0 1 0 -15 0zM415.11 605.51 a7.5 7.5 0 1 0 15 0 a7.5 7.5 0 1 0 -15 0zM415.11 530.51 a7.5 7.5 0 1 0 15 0 a7.5 7.5 0 1 0 -15 0zM480.07 718.01 a7.5 7.5 0 1 0 15 0 a7.5 7.5 0 1 0 -15 0zM480.07 868.01 a7.5 7.5 0 1 0 15 0 a7.5 7.5 0 1 0 -15 0zM480.07 943.01 a7.5 7.5 0 1 0 15 0 a7.5 7.5 0 1 0 -15 0zM415.11 980.51 a7.5 7.5 0 1 0 15 0 a7.5 7.5 0 1 0 -15 0zM545.02 980.51 a7.5 7.5 0 1 0 15 0 a7.5 7.5 0 1 0 -15 0zM545.02 1055.51 a7.5 7.5 0 1 0 15 0 a7.5 7.5 0 1 0 -15 0zM480.07 1093.01 a7.5 7.5 0 1 0 15 0 a7.5 7.5 0 1 0 -15 0zM415.11 1055.51 a7.5 7.5 0 1 0 15 0 a7.5 7.5 0 1 0 -15 0zM480.07 1168.01 a7.5 7.5 0 1 0 15 0 a7.5 7.5 0 1 0 -15 0zM415.11 1205.51 a7.5 7.5 0 1 0 15 0 a7.5 7.5 0 1 0 -15 0zM609.97 43.01 a7.5 7.5 0 1 0 15 0 a7.5 7.5 0 1 0 -15 0zM674.93 80.51 a7.5 7.5 0 1 0 15 0 a7.5 7.5 0 1 0 -15 0zM674.93 155.51 a7.5 7.5 0 1 0 15 0 a7.5 7.5 0 1 0 -15 0zM609.97 193.01 a7.5 7.5 0 1 0 15 0 a7.5 7.5 0 1 0 -15 0zM545.02 155.51 a7.5 7.5 0 1 0 15 0 a7.5 7.5 0 1 0 -15 0zM545.02 80.51 a7.5 7.5 0 1 0 15 0 a7.5 7.5 0 1 0 -15 0zM609.97 268.01 a7.5 7.5 0 1 0 15 0 a7.5 7.5 0 1 0 -15 0zM674.93 305.51 a7.5 7.5 0 1 0 15 0 a7.5 7.5 0 1 0 -15 0zM674.93 380.51 a7.5 7.5 0 1 0 15 0 a7.5 7.5 0 1 0 -15 0zM609.97 418.01 a7.5 7.5 0 1 0 15 0 a7.5 7.5 0 1 0 -15 0zM545.02 380.51 a7.5 7.5 0 1 0 15 0 a7.5 7.5 0 1 0 -15 0zM545.02 305.51 a7.5 7.5 0 1 0 15 0 a7.5 7.5 0 1 0 -15 0zM609.97 718.01 a7.5 7.5 0 1 0 15 0 a7.5 7.5 0 1 0 -15 0zM674.93 755.51 a7.5 7.5 0 1 0 15 0 a7.5 7.5 0 1 0 -15 0zM674.93 830.51 a7.5 7.5 0 1 0 15 0 a7.5 7.5 0 1 0 -15 0zM609.97 868.01 a7.5 7.5 0 1 0 15 0 a7.5 7.5 0 1 0 -15 0zM545.02 830.51 a7.5 7.5 0 1 0 15 0 a7.5 7.5 0 1 0 -15 0zM545.02 755.51 a7.5 7.5 0 1 0 15 0 a7.5 7.5 0 1 0 -15 0zM739.88 193.01 a7.5 7.5 0 1 0 15 0 a7.5 7.5 0 1 0 -15 0zM739.88 268.01 a7.5 7.5 0 1 0 15 0 a7.5 7.5 0 1 0 -15 0zM804.84 305.51 a7.5 7.5 0 1 0 15 0 a7.5 7.5 0 1 0 -15 0zM804.84 380.51 a7.5 7.5 0 1 0 15 0 a7.5 7.5 0 1 0 -15 0zM739.88 418.01 a7.5 7.5 0 1 0 15 0 a7.5 7.5 0 1 0 -15 0zM739.88 493.01 a7.5 7.5 0 1 0 15 0 a7.5 7.5 0 1 0 -15 0zM674.93 530.51 a7.5 7.5 0 1 0 15 0 a7.5 7.5 0 1 0 -15 0zM609.97 493.01 a7.5 7.5 0 1 0 15 0 a7.5 7.5 0 1 0 -15 0zM804.84 530.51 a7.5 7.5 0 1 0 15 0 a7.5 7.5 0 1 0 -15 0zM804.84 605.51 a7.5 7.5 0 1 0 15 0 a7.5 7.5 0 1 0 -15 0zM739.88 643.01 a7.5 7.5 0 1 0 15 0 a7.5 7.5 0 1 0 -15 0zM674.93 605.51 a7.5 7.5 0 1 0 15 0 a7.5 7.5 0 1 0 -15 0zM739.88 718.01 a7.5 7.5 0 1 0 15 0 a7.5 7.5 0 1 0 -15 0zM609.97 643.01 a7.5 7.5 0 1 0 15 0 a7.5 7.5 0 1 0 -15 0zM739.88 868.01 a7.5 7.5 0 1 0 15 0 a7.5 7.5 0 1 0 -15 0zM739.88 943.01 a7.5 7.5 0 1 0 15 0 a7.5 7.5 0 1 0 -15 0zM674.93 980.51 a7.5 7.5 0 1 0 15 0 a7.5 7.5 0 1 0 -15 0zM609.97 943.01 a7.5 7.5 0 1 0 15 0 a7.5 7.5 0 1 0 -15 0zM804.83 -69.49 a7.5 7.5 0 1 0 15 0 a7.5 7.5 0 1 0 -15 0zM869.79 -31.99 a7.5 7.5 0 1 0 15 0 a7.5 7.5 0 1 0 -15 0zM869.79 43.01 a7.5 7.5 0 1 0 15 0 a7.5 7.5 0 1 0 -15 0zM804.83 80.51 a7.5 7.5 0 1 0 15 0 a7.5 7.5 0 1 0 -15 0zM739.88 43.01 a7.5 7.5 0 1 0 15 0 a7.5 7.5 0 1 0 -15 0zM739.88 -31.99 a7.5 7.5 0 1 0 15 0 a7.5 7.5 0 1 0 -15 0zM869.79 493.01 a7.5 7.5 0 1 0 15 0 a7.5 7.5 0 1 0 -15 0zM934.74 530.51 a7.5 7.5 0 1 0 15 0 a7.5 7.5 0 1 0 -15 0zM934.74 605.51 a7.5 7.5 0 1 0 15 0 a7.5 7.5 0 1 0 -15 0zM869.79 643.01 a7.5 7.5 0 1 0 15 0 a7.5 7.5 0 1 0 -15 0zM804.83 605.51 a7.5 7.5 0 1 0 15 0 a7.5 7.5 0 1 0 -15 0zM804.83 530.51 a7.5 7.5 0 1 0 15 0 a7.5 7.5 0 1 0 -15 0zM804.83 830.51 a7.5 7.5 0 1 0 15 0 a7.5 7.5 0 1 0 -15 0zM869.79 868.01 a7.5 7.5 0 1 0 15 0 a7.5 7.5 0 1 0 -15 0zM869.79 943.01 a7.5 7.5 0 1 0 15 0 a7.5 7.5 0 1 0 -15 0zM804.83 980.51 a7.5 7.5 0 1 0 15 0 a7.5 7.5 0 1 0 -15 0zM934.74 -69.49 a7.5 7.5 0 1 0 15 0 a7.5 7.5 0 1 0 -15 0zM999.7 -31.99 a7.5 7.5 0 1 0 15 0 a7.5 7.5 0 1 0 -15 0zM999.7 43.01 a7.5 7.5 0 1 0 15 0 a7.5 7.5 0 1 0 -15 0zM934.74 80.51 a7.5 7.5 0 1 0 15 0 a7.5 7.5 0 1 0 -15 0zM1064.65 80.51 a7.5 7.5 0 1 0 15 0 a7.5 7.5 0 1 0 -15 0zM1064.65 155.51 a7.5 7.5 0 1 0 15 0 a7.5 7.5 0 1 0 -15 0zM999.7 193.01 a7.5 7.5 0 1 0 15 0 a7.5 7.5 0 1 0 -15 0zM934.74 155.51 a7.5 7.5 0 1 0 15 0 a7.5 7.5 0 1 0 -15 0zM999.7 268.01 a7.5 7.5 0 1 0 15 0 a7.5 7.5 0 1 0 -15 0zM934.74 305.51 a7.5 7.5 0 1 0 15 0 a7.5 7.5 0 1 0 -15 0zM869.79 268.01 a7.5 7.5 0 1 0 15 0 a7.5 7.5 0 1 0 -15 0zM869.79 193.01 a7.5 7.5 0 1 0 15 0 a7.5 7.5 0 1 0 -15 0zM1064.65 305.51 a7.5 7.5 0 1 0 15 0 a7.5 7.5 0 1 0 -15 0zM1064.65 380.51 a7.5 7.5 0 1 0 15 0 a7.5 7.5 0 1 0 -15 0zM999.7 418.01 a7.5 7.5 0 1 0 15 0 a7.5 7.5 0 1 0 -15 0zM934.74 380.51 a7.5 7.5 0 1 0 15 0 a7.5 7.5 0 1 0 -15 0zM999.7 943.01 a7.5 7.5 0 1 0 15 0 a7.5 7.5 0 1 0 -15 0zM1064.65 980.51 a7.5 7.5 0 1 0 15 0 a7.5 7.5 0 1 0 -15 0zM1064.65 1055.51 a7.5 7.5 0 1 0 15 0 a7.5 7.5 0 1 0 -15 0zM999.7 1093.01 a7.5 7.5 0 1 0 15 0 a7.5 7.5 0 1 0 -15 0zM934.74 1055.51 a7.5 7.5 0 1 0 15 0 a7.5 7.5 0 1 0 -15 0zM934.74 980.51 a7.5 7.5 0 1 0 15 0 a7.5 7.5 0 1 0 -15 0zM1064.65 -69.49 a7.5 7.5 0 1 0 15 0 a7.5 7.5 0 1 0 -15 0zM1129.6 -31.99 a7.5 7.5 0 1 0 15 0 a7.5 7.5 0 1 0 -15 0zM1129.6 43.01 a7.5 7.5 0 1 0 15 0 a7.5 7.5 0 1 0 -15 0zM1129.6 193.01 a7.5 7.5 0 1 0 15 0 a7.5 7.5 0 1 0 -15 0zM1129.6 268.01 a7.5 7.5 0 1 0 15 0 a7.5 7.5 0 1 0 -15 0zM1129.6 718.01 a7.5 7.5 0 1 0 15 0 a7.5 7.5 0 1 0 -15 0zM1194.56 755.51 a7.5 7.5 0 1 0 15 0 a7.5 7.5 0 1 0 -15 0zM1194.56 830.51 a7.5 7.5 0 1 0 15 0 a7.5 7.5 0 1 0 -15 0zM1129.6 868.01 a7.5 7.5 0 1 0 15 0 a7.5 7.5 0 1 0 -15 0zM1064.65 830.51 a7.5 7.5 0 1 0 15 0 a7.5 7.5 0 1 0 -15 0zM1064.65 755.51 a7.5 7.5 0 1 0 15 0 a7.5 7.5 0 1 0 -15 0zM1259.51 43.01 a7.5 7.5 0 1 0 15 0 a7.5 7.5 0 1 0 -15 0zM1324.46 80.51 a7.5 7.5 0 1 0 15 0 a7.5 7.5 0 1 0 -15 0zM1324.46 155.51 a7.5 7.5 0 1 0 15 0 a7.5 7.5 0 1 0 -15 0zM1259.51 193.01 a7.5 7.5 0 1 0 15 0 a7.5 7.5 0 1 0 -15 0zM1194.56 155.51 a7.5 7.5 0 1 0 15 0 a7.5 7.5 0 1 0 -15 0zM1194.56 80.51 a7.5 7.5 0 1 0 15 0 a7.5 7.5 0 1 0 -15 0zM1259.51 493.01 a7.5 7.5 0 1 0 15 0 a7.5 7.5 0 1 0 -15 0zM1324.46 530.51 a7.5 7.5 0 1 0 15 0 a7.5 7.5 0 1 0 -15 0zM1324.46 605.51 a7.5 7.5 0 1 0 15 0 a7.5 7.5 0 1 0 -15 0zM1259.51 643.01 a7.5 7.5 0 1 0 15 0 a7.5 7.5 0 1 0 -15 0zM1194.56 605.51 a7.5 7.5 0 1 0 15 0 a7.5 7.5 0 1 0 -15 0zM1194.56 530.51 a7.5 7.5 0 1 0 15 0 a7.5 7.5 0 1 0 -15 0zM1259.51 718.01 a7.5 7.5 0 1 0 15 0 a7.5 7.5 0 1 0 -15 0zM1324.46 755.51 a7.5 7.5 0 1 0 15 0 a7.5 7.5 0 1 0 -15 0zM1324.46 830.51 a7.5 7.5 0 1 0 15 0 a7.5 7.5 0 1 0 -15 0zM1259.51 868.01 a7.5 7.5 0 1 0 15 0 a7.5 7.5 0 1 0 -15 0zM1259.51 943.01 a7.5 7.5 0 1 0 15 0 a7.5 7.5 0 1 0 -15 0zM1194.56 980.51 a7.5 7.5 0 1 0 15 0 a7.5 7.5 0 1 0 -15 0zM1129.6 943.01 a7.5 7.5 0 1 0 15 0 a7.5 7.5 0 1 0 -15 0zM1324.46 980.51 a7.5 7.5 0 1 0 15 0 a7.5 7.5 0 1 0 -15 0zM1324.46 1055.51 a7.5 7.5 0 1 0 15 0 a7.5 7.5 0 1 0 -15 0zM1259.51 1093.01 a7.5 7.5 0 1 0 15 0 a7.5 7.5 0 1 0 -15 0zM1194.56 1055.51 a7.5 7.5 0 1 0 15 0 a7.5 7.5 0 1 0 -15 0zM1259.51 1168.01 a7.5 7.5 0 1 0 15 0 a7.5 7.5 0 1 0 -15 0zM1194.56 1205.51 a7.5 7.5 0 1 0 15 0 a7.5 7.5 0 1 0 -15 0zM1129.6 1168.01 a7.5 7.5 0 1 0 15 0 a7.5 7.5 0 1 0 -15 0zM1129.6 1093.01 a7.5 7.5 0 1 0 15 0 a7.5 7.5 0 1 0 -15 0zM1324.47 -69.49 a7.5 7.5 0 1 0 15 0 a7.5 7.5 0 1 0 -15 0zM1389.42 -31.99 a7.5 7.5 0 1 0 15 0 a7.5 7.5 0 1 0 -15 0zM1389.42 43.01 a7.5 7.5 0 1 0 15 0 a7.5 7.5 0 1 0 -15 0zM1324.47 80.51 a7.5 7.5 0 1 0 15 0 a7.5 7.5 0 1 0 -15 0zM1259.51 -31.99 a7.5 7.5 0 1 0 15 0 a7.5 7.5 0 1 0 -15 0zM1454.37 80.51 a7.5 7.5 0 1 0 15 0 a7.5 7.5 0 1 0 -15 0zM1454.37 155.51 a7.5 7.5 0 1 0 15 0 a7.5 7.5 0 1 0 -15 0zM1389.42 193.01 a7.5 7.5 0 1 0 15 0 a7.5 7.5 0 1 0 -15 0zM1324.47 155.51 a7.5 7.5 0 1 0 15 0 a7.5 7.5 0 1 0 -15 0zM1389.42 268.01 a7.5 7.5 0 1 0 15 0 a7.5 7.5 0 1 0 -15 0zM1454.37 305.51 a7.5 7.5 0 1 0 15 0 a7.5 7.5 0 1 0 -15 0zM1454.37 380.51 a7.5 7.5 0 1 0 15 0 a7.5 7.5 0 1 0 -15 0zM1389.42 418.01 a7.5 7.5 0 1 0 15 0 a7.5 7.5 0 1 0 -15 0zM1324.47 380.51 a7.5 7.5 0 1 0 15 0 a7.5 7.5 0 1 0 -15 0zM1324.47 305.51 a7.5 7.5 0 1 0 15 0 a7.5 7.5 0 1 0 -15 0zM1324.47 605.51 a7.5 7.5 0 1 0 15 0 a7.5 7.5 0 1 0 -15 0zM1389.42 643.01 a7.5 7.5 0 1 0 15 0 a7.5 7.5 0 1 0 -15 0zM1389.42 718.01 a7.5 7.5 0 1 0 15 0 a7.5 7.5 0 1 0 -15 0zM1324.47 755.51 a7.5 7.5 0 1 0 15 0 a7.5 7.5 0 1 0 -15 0zM1324.47 830.51 a7.5 7.5 0 1 0 15 0 a7.5 7.5 0 1 0 -15 0zM1389.42 868.01 a7.5 7.5 0 1 0 15 0 a7.5 7.5 0 1 0 -15 0zM1389.42 943.01 a7.5 7.5 0 1 0 15 0 a7.5 7.5 0 1 0 -15 0zM1324.47 980.51 a7.5 7.5 0 1 0 15 0 a7.5 7.5 0 1 0 -15 0zM1454.37 980.51 a7.5 7.5 0 1 0 15 0 a7.5 7.5 0 1 0 -15 0zM1454.37 1055.51 a7.5 7.5 0 1 0 15 0 a7.5 7.5 0 1 0 -15 0zM1389.42 1093.01 a7.5 7.5 0 1 0 15 0 a7.5 7.5 0 1 0 -15 0zM1324.47 1055.51 a7.5 7.5 0 1 0 15 0 a7.5 7.5 0 1 0 -15 0zM1389.42 1168.01 a7.5 7.5 0 1 0 15 0 a7.5 7.5 0 1 0 -15 0zM1324.47 1205.51 a7.5 7.5 0 1 0 15 0 a7.5 7.5 0 1 0 -15 0zM1454.37 -69.49 a7.5 7.5 0 1 0 15 0 a7.5 7.5 0 1 0 -15 0zM1519.33 -31.99 a7.5 7.5 0 1 0 15 0 a7.5 7.5 0 1 0 -15 0zM1519.33 43.01 a7.5 7.5 0 1 0 15 0 a7.5 7.5 0 1 0 -15 0zM1584.28 80.51 a7.5 7.5 0 1 0 15 0 a7.5 7.5 0 1 0 -15 0zM1584.28 155.51 a7.5 7.5 0 1 0 15 0 a7.5 7.5 0 1 0 -15 0zM1519.33 193.01 a7.5 7.5 0 1 0 15 0 a7.5 7.5 0 1 0 -15 0zM1519.33 418.01 a7.5 7.5 0 1 0 15 0 a7.5 7.5 0 1 0 -15 0zM1519.33 493.01 a7.5 7.5 0 1 0 15 0 a7.5 7.5 0 1 0 -15 0zM1454.37 530.51 a7.5 7.5 0 1 0 15 0 a7.5 7.5 0 1 0 -15 0zM1389.42 493.01 a7.5 7.5 0 1 0 15 0 a7.5 7.5 0 1 0 -15 0zM1584.28 530.51 a7.5 7.5 0 1 0 15 0 a7.5 7.5 0 1 0 -15 0zM1584.28 605.51 a7.5 7.5 0 1 0 15 0 a7.5 7.5 0 1 0 -15 0zM1519.33 643.01 a7.5 7.5 0 1 0 15 0 a7.5 7.5 0 1 0 -15 0zM1454.37 605.51 a7.5 7.5 0 1 0 15 0 a7.5 7.5 0 1 0 -15 0zM1519.33 1093.01 a7.5 7.5 0 1 0 15 0 a7.5 7.5 0 1 0 -15 0zM1519.33 1168.01 a7.5 7.5 0 1 0 15 0 a7.5 7.5 0 1 0 -15 0zM1454.37 1205.51 a7.5 7.5 0 1 0 15 0 a7.5 7.5 0 1 0 -15 0zM1649.23 193.01 a7.5 7.5 0 1 0 15 0 a7.5 7.5 0 1 0 -15 0zM1649.23 268.01 a7.5 7.5 0 1 0 15 0 a7.5 7.5 0 1 0 -15 0zM1584.28 305.51 a7.5 7.5 0 1 0 15 0 a7.5 7.5 0 1 0 -15 0zM1519.33 268.01 a7.5 7.5 0 1 0 15 0 a7.5 7.5 0 1 0 -15 0zM1649.23 643.01 a7.5 7.5 0 1 0 15 0 a7.5 7.5 0 1 0 -15 0zM1649.23 718.01 a7.5 7.5 0 1 0 15 0 a7.5 7.5 0 1 0 -15 0zM1584.28 755.51 a7.5 7.5 0 1 0 15 0 a7.5 7.5 0 1 0 -15 0zM1519.33 718.01 a7.5 7.5 0 1 0 15 0 a7.5 7.5 0 1 0 -15 0zM1649.23 943.01 a7.5 7.5 0 1 0 15 0 a7.5 7.5 0 1 0 -15 0zM1714.19 980.51 a7.5 7.5 0 1 0 15 0 a7.5 7.5 0 1 0 -15 0zM1714.19 1055.51 a7.5 7.5 0 1 0 15 0 a7.5 7.5 0 1 0 -15 0zM1649.23 1093.01 a7.5 7.5 0 1 0 15 0 a7.5 7.5 0 1 0 -15 0zM1584.28 1055.51 a7.5 7.5 0 1 0 15 0 a7.5 7.5 0 1 0 -15 0zM1584.28 980.51 a7.5 7.5 0 1 0 15 0 a7.5 7.5 0 1 0 -15 0zM1779.14 43.01 a7.5 7.5 0 1 0 15 0 a7.5 7.5 0 1 0 -15 0zM1844.09 80.51 a7.5 7.5 0 1 0 15 0 a7.5 7.5 0 1 0 -15 0zM1844.09 155.51 a7.5 7.5 0 1 0 15 0 a7.5 7.5 0 1 0 -15 0zM1779.14 193.01 a7.5 7.5 0 1 0 15 0 a7.5 7.5 0 1 0 -15 0zM1714.19 155.51 a7.5 7.5 0 1 0 15 0 a7.5 7.5 0 1 0 -15 0zM1714.19 80.51 a7.5 7.5 0 1 0 15 0 a7.5 7.5 0 1 0 -15 0zM1714.19 605.51 a7.5 7.5 0 1 0 15 0 a7.5 7.5 0 1 0 -15 0zM1779.14 643.01 a7.5 7.5 0 1 0 15 0 a7.5 7.5 0 1 0 -15 0zM1779.14 718.01 a7.5 7.5 0 1 0 15 0 a7.5 7.5 0 1 0 -15 0zM1714.19 755.51 a7.5 7.5 0 1 0 15 0 a7.5 7.5 0 1 0 -15 0zM1844.09 755.51 a7.5 7.5 0 1 0 15 0 a7.5 7.5 0 1 0 -15 0zM1844.09 830.51 a7.5 7.5 0 1 0 15 0 a7.5 7.5 0 1 0 -15 0zM1779.14 868.01 a7.5 7.5 0 1 0 15 0 a7.5 7.5 0 1 0 -15 0zM1714.19 830.51 a7.5 7.5 0 1 0 15 0 a7.5 7.5 0 1 0 -15 0zM1779.14 1093.01 a7.5 7.5 0 1 0 15 0 a7.5 7.5 0 1 0 -15 0zM1779.14 1168.01 a7.5 7.5 0 1 0 15 0 a7.5 7.5 0 1 0 -15 0zM1714.19 1205.51 a7.5 7.5 0 1 0 15 0 a7.5 7.5 0 1 0 -15 0zM1649.23 1168.01 a7.5 7.5 0 1 0 15 0 a7.5 7.5 0 1 0 -15 0zM1844.1 -69.49 a7.5 7.5 0 1 0 15 0 a7.5 7.5 0 1 0 -15 0zM1909.05 -31.99 a7.5 7.5 0 1 0 15 0 a7.5 7.5 0 1 0 -15 0zM1909.05 43.01 a7.5 7.5 0 1 0 15 0 a7.5 7.5 0 1 0 -15 0zM1844.1 80.51 a7.5 7.5 0 1 0 15 0 a7.5 7.5 0 1 0 -15 0zM1779.14 -31.99 a7.5 7.5 0 1 0 15 0 a7.5 7.5 0 1 0 -15 0zM1974 80.51 a7.5 7.5 0 1 0 15 0 a7.5 7.5 0 1 0 -15 0zM1974 155.51 a7.5 7.5 0 1 0 15 0 a7.5 7.5 0 1 0 -15 0zM1909.05 193.01 a7.5 7.5 0 1 0 15 0 a7.5 7.5 0 1 0 -15 0zM1844.1 155.51 a7.5 7.5 0 1 0 15 0 a7.5 7.5 0 1 0 -15 0zM1909.05 268.01 a7.5 7.5 0 1 0 15 0 a7.5 7.5 0 1 0 -15 0zM1974 305.51 a7.5 7.5 0 1 0 15 0 a7.5 7.5 0 1 0 -15 0zM1974 380.51 a7.5 7.5 0 1 0 15 0 a7.5 7.5 0 1 0 -15 0zM1909.05 418.01 a7.5 7.5 0 1 0 15 0 a7.5 7.5 0 1 0 -15 0zM1844.1 380.51 a7.5 7.5 0 1 0 15 0 a7.5 7.5 0 1 0 -15 0zM1844.1 305.51 a7.5 7.5 0 1 0 15 0 a7.5 7.5 0 1 0 -15 0zM1909.05 493.01 a7.5 7.5 0 1 0 15 0 a7.5 7.5 0 1 0 -15 0zM1844.1 530.51 a7.5 7.5 0 1 0 15 0 a7.5 7.5 0 1 0 -15 0zM1779.14 493.01 a7.5 7.5 0 1 0 15 0 a7.5 7.5 0 1 0 -15 0zM1779.14 418.01 a7.5 7.5 0 1 0 15 0 a7.5 7.5 0 1 0 -15 0zM1974 530.51 a7.5 7.5 0 1 0 15 0 a7.5 7.5 0 1 0 -15 0zM1974 605.51 a7.5 7.5 0 1 0 15 0 a7.5 7.5 0 1 0 -15 0zM1909.05 643.01 a7.5 7.5 0 1 0 15 0 a7.5 7.5 0 1 0 -15 0zM1844.1 605.51 a7.5 7.5 0 1 0 15 0 a7.5 7.5 0 1 0 -15 0zM1844.1 1055.51 a7.5 7.5 0 1 0 15 0 a7.5 7.5 0 1 0 -15 0zM1909.05 1093.01 a7.5 7.5 0 1 0 15 0 a7.5 7.5 0 1 0 -15 0zM1909.05 1168.01 a7.5 7.5 0 1 0 15 0 a7.5 7.5 0 1 0 -15 0zM1844.1 1205.51 a7.5 7.5 0 1 0 15 0 a7.5 7.5 0 1 0 -15 0z" fill="rgba(0, 0, 0, 1)"></path><path d="M13.21 107.18L56.51 132.18L56.51 182.18L13.21 207.18L-30.09 182.18L-30.09 132.18zM13.21 557.18L56.51 582.18L56.51 632.18L13.21 657.18L-30.09 632.18L-30.09 582.18zM56.51 782.18L99.81 807.18L99.81 857.18L56.51 882.18L13.21 857.18L13.21 807.18zM143.12 32.18L186.42 57.18L186.42 107.18L143.12 132.18L99.81 107.18L99.81 57.18zM99.81 107.18L143.12 132.18L143.12 182.18L99.81 207.18L56.51 182.18L56.51 132.18zM99.81 257.18L143.12 282.18L143.12 332.18L99.81 357.18L56.51 332.18L56.51 282.18zM99.81 407.18L143.12 432.18L143.12 482.18L99.81 507.18L56.51 482.18L56.51 432.18zM143.12 482.18L186.42 507.18L186.42 557.18L143.12 582.18L99.81 557.18L99.81 507.18zM99.81 557.18L143.12 582.18L143.12 632.18L99.81 657.18L56.51 632.18L56.51 582.18zM143.12 782.18L186.42 807.18L186.42 857.18L143.12 882.18L99.81 857.18L99.81 807.18zM143.12 932.18L186.42 957.18L186.42 1007.18L143.12 1032.18L99.81 1007.18L99.81 957.18zM99.81 1007.18L143.12 1032.18L143.12 1082.18L99.81 1107.18L56.51 1082.18L56.51 1032.18zM229.72 182.18L273.02 207.18L273.02 257.18L229.72 282.18L186.42 257.18L186.42 207.18zM186.42 257.18L229.72 282.18L229.72 332.18L186.42 357.18L143.12 332.18L143.12 282.18zM229.72 332.18L273.02 357.18L273.02 407.18L229.72 432.18L186.42 407.18L186.42 357.18zM186.42 407.18L229.72 432.18L229.72 482.18L186.42 507.18L143.12 482.18L143.12 432.18zM229.72 632.18L273.02 657.18L273.02 707.18L229.72 732.18L186.42 707.18L186.42 657.18zM186.42 707.18L229.72 732.18L229.72 782.18L186.42 807.18L143.12 782.18L143.12 732.18zM229.72 782.18L273.02 807.18L273.02 857.18L229.72 882.18L186.42 857.18L186.42 807.18zM316.33 32.18L359.63 57.18L359.63 107.18L316.33 132.18L273.02 107.18L273.02 57.18zM273.02 107.18L316.33 132.18L316.33 182.18L273.02 207.18L229.72 182.18L229.72 132.18zM316.33 182.18L359.63 207.18L359.63 257.18L316.33 282.18L273.02 257.18L273.02 207.18zM273.02 257.18L316.33 282.18L316.33 332.18L273.02 357.18L229.72 332.18L229.72 282.18zM316.33 482.18L359.63 507.18L359.63 557.18L316.33 582.18L273.02 557.18L273.02 507.18zM316.33 782.18L359.63 807.18L359.63 857.18L316.33 882.18L273.02 857.18L273.02 807.18zM273.02 857.18L316.33 882.18L316.33 932.18L273.02 957.18L229.72 932.18L229.72 882.18zM316.33 932.18L359.63 957.18L359.63 1007.18L316.33 1032.18L273.02 1007.18L273.02 957.18zM359.63 -42.82L402.93 -17.82L402.93 32.18L359.63 57.18L316.33 32.18L316.33 -17.82zM402.93 332.18L446.24 357.18L446.24 407.18L402.93 432.18L359.63 407.18L359.63 357.18zM402.93 482.18L446.24 507.18L446.24 557.18L402.93 582.18L359.63 557.18L359.63 507.18zM402.93 782.18L446.24 807.18L446.24 857.18L402.93 882.18L359.63 857.18L359.63 807.18zM359.63 857.18L402.93 882.18L402.93 932.18L359.63 957.18L316.33 932.18L316.33 882.18zM359.63 1007.18L402.93 1032.18L402.93 1082.18L359.63 1107.18L316.33 1082.18L316.33 1032.18zM489.54 32.18L532.84 57.18L532.84 107.18L489.54 132.18L446.24 107.18L446.24 57.18zM446.24 107.18L489.54 132.18L489.54 182.18L446.24 207.18L402.93 182.18L402.93 132.18zM489.54 182.18L532.84 207.18L532.84 257.18L489.54 282.18L446.24 257.18L446.24 207.18zM446.24 257.18L489.54 282.18L489.54 332.18L446.24 357.18L402.93 332.18L402.93 282.18zM489.54 332.18L532.84 357.18L532.84 407.18L489.54 432.18L446.24 407.18L446.24 357.18zM489.54 782.18L532.84 807.18L532.84 857.18L489.54 882.18L446.24 857.18L446.24 807.18zM489.54 932.18L532.84 957.18L532.84 1007.18L489.54 1032.18L446.24 1007.18L446.24 957.18zM532.84 107.18L576.14 132.18L576.14 182.18L532.84 207.18L489.54 182.18L489.54 132.18zM532.84 257.18L576.14 282.18L576.14 332.18L532.84 357.18L489.54 332.18L489.54 282.18zM576.14 482.18L619.45 507.18L619.45 557.18L576.14 582.18L532.84 557.18L532.84 507.18zM532.84 557.18L576.14 582.18L576.14 632.18L532.84 657.18L489.54 632.18L489.54 582.18zM619.45 -42.82L662.75 -17.82L662.75 32.18L619.45 57.18L576.14 32.18L576.14 -17.82zM662.75 32.18L706.05 57.18L706.05 107.18L662.75 132.18L619.45 107.18L619.45 57.18zM662.75 332.18L706.05 357.18L706.05 407.18L662.75 432.18L619.45 407.18L619.45 357.18zM619.45 407.18L662.75 432.18L662.75 482.18L619.45 507.18L576.14 482.18L576.14 432.18zM662.75 482.18L706.05 507.18L706.05 557.18L662.75 582.18L619.45 557.18L619.45 507.18zM619.45 707.18L662.75 732.18L662.75 782.18L619.45 807.18L576.14 782.18L576.14 732.18zM662.75 782.18L706.05 807.18L706.05 857.18L662.75 882.18L619.45 857.18L619.45 807.18zM706.05 -42.82L749.35 -17.82L749.35 32.18L706.05 57.18L662.75 32.18L662.75 -17.82zM706.05 407.18L749.35 432.18L749.35 482.18L706.05 507.18L662.75 482.18L662.75 432.18zM749.35 482.18L792.66 507.18L792.66 557.18L749.35 582.18L706.05 557.18L706.05 507.18zM706.05 857.18L749.35 882.18L749.35 932.18L706.05 957.18L662.75 932.18L662.75 882.18zM706.05 1007.18L749.35 1032.18L749.35 1082.18L706.05 1107.18L662.75 1082.18L662.75 1032.18zM835.96 32.18L879.26 57.18L879.26 107.18L835.96 132.18L792.66 107.18L792.66 57.18zM835.96 182.18L879.26 207.18L879.26 257.18L835.96 282.18L792.66 257.18L792.66 207.18zM792.66 257.18L835.96 282.18L835.96 332.18L792.66 357.18L749.35 332.18L749.35 282.18zM835.96 332.18L879.26 357.18L879.26 407.18L835.96 432.18L792.66 407.18L792.66 357.18zM792.66 557.18L835.96 582.18L835.96 632.18L792.66 657.18L749.35 632.18L749.35 582.18zM792.66 707.18L835.96 732.18L835.96 782.18L792.66 807.18L749.35 782.18L749.35 732.18zM922.56 32.18L965.87 57.18L965.87 107.18L922.56 132.18L879.26 107.18L879.26 57.18zM879.26 257.18L922.56 282.18L922.56 332.18L879.26 357.18L835.96 332.18L835.96 282.18zM879.26 407.18L922.56 432.18L922.56 482.18L879.26 507.18L835.96 482.18L835.96 432.18zM922.56 482.18L965.87 507.18L965.87 557.18L922.56 582.18L879.26 557.18L879.26 507.18zM922.56 932.18L965.87 957.18L965.87 1007.18L922.56 1032.18L879.26 1007.18L879.26 957.18zM879.26 1007.18L922.56 1032.18L922.56 1082.18L879.26 1107.18L835.96 1082.18L835.96 1032.18zM1009.17 332.18L1052.47 357.18L1052.47 407.18L1009.17 432.18L965.87 407.18L965.87 357.18zM1095.77 32.18L1139.08 57.18L1139.08 107.18L1095.77 132.18L1052.47 107.18L1052.47 57.18zM1052.47 257.18L1095.77 282.18L1095.77 332.18L1052.47 357.18L1009.17 332.18L1009.17 282.18zM1095.77 332.18L1139.08 357.18L1139.08 407.18L1095.77 432.18L1052.47 407.18L1052.47 357.18zM1095.77 782.18L1139.08 807.18L1139.08 857.18L1095.77 882.18L1052.47 857.18L1052.47 807.18zM1182.38 32.18L1225.68 57.18L1225.68 107.18L1182.38 132.18L1139.08 107.18L1139.08 57.18zM1139.08 257.18L1182.38 282.18L1182.38 332.18L1139.08 357.18L1095.77 332.18L1095.77 282.18zM1182.38 482.18L1225.68 507.18L1225.68 557.18L1182.38 582.18L1139.08 557.18L1139.08 507.18zM1182.38 632.18L1225.68 657.18L1225.68 707.18L1182.38 732.18L1139.08 707.18L1139.08 657.18zM1139.08 857.18L1182.38 882.18L1182.38 932.18L1139.08 957.18L1095.77 932.18L1095.77 882.18zM1182.38 932.18L1225.68 957.18L1225.68 1007.18L1182.38 1032.18L1139.08 1007.18L1139.08 957.18zM1225.68 -42.82L1268.98 -17.82L1268.98 32.18L1225.68 57.18L1182.38 32.18L1182.38 -17.82zM1268.98 32.18L1312.29 57.18L1312.29 107.18L1268.98 132.18L1225.68 107.18L1225.68 57.18zM1268.98 182.18L1312.29 207.18L1312.29 257.18L1268.98 282.18L1225.68 257.18L1225.68 207.18zM1225.68 257.18L1268.98 282.18L1268.98 332.18L1225.68 357.18L1182.38 332.18L1182.38 282.18zM1268.98 482.18L1312.29 507.18L1312.29 557.18L1268.98 582.18L1225.68 557.18L1225.68 507.18zM1268.98 632.18L1312.29 657.18L1312.29 707.18L1268.98 732.18L1225.68 707.18L1225.68 657.18zM1225.68 707.18L1268.98 732.18L1268.98 782.18L1225.68 807.18L1182.38 782.18L1182.38 732.18zM1268.98 782.18L1312.29 807.18L1312.29 857.18L1268.98 882.18L1225.68 857.18L1225.68 807.18zM1225.68 857.18L1268.98 882.18L1268.98 932.18L1225.68 957.18L1182.38 932.18L1182.38 882.18zM1268.98 932.18L1312.29 957.18L1312.29 1007.18L1268.98 1032.18L1225.68 1007.18L1225.68 957.18zM1312.29 257.18L1355.59 282.18L1355.59 332.18L1312.29 357.18L1268.98 332.18L1268.98 282.18zM1355.59 332.18L1398.89 357.18L1398.89 407.18L1355.59 432.18L1312.29 407.18L1312.29 357.18zM1312.29 407.18L1355.59 432.18L1355.59 482.18L1312.29 507.18L1268.98 482.18L1268.98 432.18zM1355.59 482.18L1398.89 507.18L1398.89 557.18L1355.59 582.18L1312.29 557.18L1312.29 507.18zM1312.29 707.18L1355.59 732.18L1355.59 782.18L1312.29 807.18L1268.98 782.18L1268.98 732.18zM1355.59 782.18L1398.89 807.18L1398.89 857.18L1355.59 882.18L1312.29 857.18L1312.29 807.18zM1355.59 932.18L1398.89 957.18L1398.89 1007.18L1355.59 1032.18L1312.29 1007.18L1312.29 957.18zM1398.89 -42.82L1442.19 -17.82L1442.19 32.18L1398.89 57.18L1355.59 32.18L1355.59 -17.82zM1398.89 107.18L1442.19 132.18L1442.19 182.18L1398.89 207.18L1355.59 182.18L1355.59 132.18zM1398.89 257.18L1442.19 282.18L1442.19 332.18L1398.89 357.18L1355.59 332.18L1355.59 282.18zM1398.89 407.18L1442.19 432.18L1442.19 482.18L1398.89 507.18L1355.59 482.18L1355.59 432.18zM1442.19 482.18L1485.5 507.18L1485.5 557.18L1442.19 582.18L1398.89 557.18L1398.89 507.18zM1398.89 557.18L1442.19 582.18L1442.19 632.18L1398.89 657.18L1355.59 632.18L1355.59 582.18zM1398.89 707.18L1442.19 732.18L1442.19 782.18L1398.89 807.18L1355.59 782.18L1355.59 732.18zM1442.19 782.18L1485.5 807.18L1485.5 857.18L1442.19 882.18L1398.89 857.18L1398.89 807.18zM1398.89 857.18L1442.19 882.18L1442.19 932.18L1398.89 957.18L1355.59 932.18L1355.59 882.18zM1398.89 1007.18L1442.19 1032.18L1442.19 1082.18L1398.89 1107.18L1355.59 1082.18L1355.59 1032.18zM1485.5 107.18L1528.8 132.18L1528.8 182.18L1485.5 207.18L1442.19 182.18L1442.19 132.18zM1485.5 257.18L1528.8 282.18L1528.8 332.18L1485.5 357.18L1442.19 332.18L1442.19 282.18zM1528.8 632.18L1572.1 657.18L1572.1 707.18L1528.8 732.18L1485.5 707.18L1485.5 657.18zM1485.5 707.18L1528.8 732.18L1528.8 782.18L1485.5 807.18L1442.19 782.18L1442.19 732.18zM1572.1 -42.82L1615.4 -17.82L1615.4 32.18L1572.1 57.18L1528.8 32.18L1528.8 -17.82zM1615.4 332.18L1658.71 357.18L1658.71 407.18L1615.4 432.18L1572.1 407.18L1572.1 357.18zM1572.1 407.18L1615.4 432.18L1615.4 482.18L1572.1 507.18L1528.8 482.18L1528.8 432.18zM1615.4 632.18L1658.71 657.18L1658.71 707.18L1615.4 732.18L1572.1 707.18L1572.1 657.18zM1572.1 1007.18L1615.4 1032.18L1615.4 1082.18L1572.1 1107.18L1528.8 1082.18L1528.8 1032.18zM1658.71 -42.82L1702.01 -17.82L1702.01 32.18L1658.71 57.18L1615.4 32.18L1615.4 -17.82zM1658.71 407.18L1702.01 432.18L1702.01 482.18L1658.71 507.18L1615.4 482.18L1615.4 432.18zM1658.71 557.18L1702.01 582.18L1702.01 632.18L1658.71 657.18L1615.4 632.18L1615.4 582.18zM1702.01 932.18L1745.31 957.18L1745.31 1007.18L1702.01 1032.18L1658.71 1007.18L1658.71 957.18zM1658.71 1007.18L1702.01 1032.18L1702.01 1082.18L1658.71 1107.18L1615.4 1082.18L1615.4 1032.18zM1788.61 32.18L1831.92 57.18L1831.92 107.18L1788.61 132.18L1745.31 107.18L1745.31 57.18zM1745.31 107.18L1788.61 132.18L1788.61 182.18L1745.31 207.18L1702.01 182.18L1702.01 132.18zM1788.61 332.18L1831.92 357.18L1831.92 407.18L1788.61 432.18L1745.31 407.18L1745.31 357.18zM1745.31 407.18L1788.61 432.18L1788.61 482.18L1745.31 507.18L1702.01 482.18L1702.01 432.18zM1788.61 482.18L1831.92 507.18L1831.92 557.18L1788.61 582.18L1745.31 557.18L1745.31 507.18zM1745.31 557.18L1788.61 582.18L1788.61 632.18L1745.31 657.18L1702.01 632.18L1702.01 582.18zM1788.61 782.18L1831.92 807.18L1831.92 857.18L1788.61 882.18L1745.31 857.18L1745.31 807.18zM1788.61 932.18L1831.92 957.18L1831.92 1007.18L1788.61 1032.18L1745.31 1007.18L1745.31 957.18zM1745.31 1007.18L1788.61 1032.18L1788.61 1082.18L1745.31 1107.18L1702.01 1082.18L1702.01 1032.18zM1831.92 -42.82L1875.22 -17.82L1875.22 32.18L1831.92 57.18L1788.61 32.18L1788.61 -17.82zM1831.92 407.18L1875.22 432.18L1875.22 482.18L1831.92 507.18L1788.61 482.18L1788.61 432.18zM1875.22 482.18L1918.52 507.18L1918.52 557.18L1875.22 582.18L1831.92 557.18L1831.92 507.18zM1831.92 557.18L1875.22 582.18L1875.22 632.18L1831.92 657.18L1788.61 632.18L1788.61 582.18zM1831.92 707.18L1875.22 732.18L1875.22 782.18L1831.92 807.18L1788.61 782.18L1788.61 732.18zM1875.22 782.18L1918.52 807.18L1918.52 857.18L1875.22 882.18L1831.92 857.18L1831.92 807.18zM1875.22 932.18L1918.52 957.18L1918.52 1007.18L1875.22 1032.18L1831.92 1007.18L1831.92 957.18zM1918.52 107.18L1961.82 132.18L1961.82 182.18L1918.52 207.18L1875.22 182.18L1875.22 132.18zM1918.52 557.18L1961.82 582.18L1961.82 632.18L1918.52 657.18L1875.22 632.18L1875.22 582.18zM1961.82 782.18L2005.13 807.18L2005.13 857.18L1961.82 882.18L1918.52 857.18L1918.52 807.18zM1961.82 932.18L2005.13 957.18L2005.13 1007.18L1961.82 1032.18L1918.52 1007.18L1918.52 957.18z" stroke="rgba(255, 255, 255, 1)" stroke-width="2"></path></g><defs><mask id="SvgjsMask1016"><rect width="1920" height="1080" fill="#ffffff"></rect></mask></defs></svg>